<svg width="11" height="20" viewBox="0 0 11 20" fill="none" xmlns="http://www.w3.org/2000/svg">
<path d="M8.66627 0.666664C8.97781 0.666056 9.27973 0.774555 9.51961 0.97333C9.65462 1.08526 9.76622 1.22273 9.84802 1.37786C9.92983 1.53299 9.98022 1.70273 9.99632 1.87737C10.0124 2.052 9.99392 2.2281 9.94186 2.39557C9.8898 2.56304 9.80521 2.7186 9.69294 2.85333L3.71961 10L9.47961 17.16C9.59036 17.2964 9.67307 17.4533 9.72298 17.6218C9.77289 17.7902 9.78901 17.9669 9.77043 18.1416C9.75184 18.3163 9.69891 18.4856 9.61468 18.6398C9.53045 18.794 9.41658 18.93 9.27961 19.04C9.14165 19.1614 8.9801 19.2529 8.80508 19.3089C8.63006 19.3649 8.44536 19.3841 8.26257 19.3653C8.07978 19.3466 7.90285 19.2902 7.74287 19.1998C7.58289 19.1094 7.44333 18.9869 7.33294 18.84L0.892941 10.84C0.696832 10.6014 0.589624 10.3022 0.589624 9.99333C0.589624 9.6845 0.696833 9.38524 0.892941 9.14666L7.55961 1.14666C7.69336 0.985307 7.86328 0.857755 8.05556 0.774357C8.24784 0.69096 8.45707 0.654062 8.66627 0.666664Z" fill="#1B1B1B"/>
</svg>
