<svg width="25" height="24" viewBox="0 0 25 24" fill="none" xmlns="http://www.w3.org/2000/svg">
<path d="M5.5 13H17.36L13.73 17.36C13.646 17.4611 13.5826 17.5778 13.5437 17.7034C13.5047 17.829 13.4909 17.961 13.503 18.0919C13.5274 18.3564 13.6558 18.6003 13.86 18.77C14.0642 18.9397 14.3275 19.0214 14.5919 18.997C14.8563 18.9726 15.1003 18.8442 15.27 18.64L20.27 12.64C20.3036 12.5923 20.3337 12.5421 20.36 12.49C20.36 12.44 20.41 12.41 20.43 12.36C20.4753 12.2453 20.4991 12.1233 20.5 12C20.4991 11.8767 20.4753 11.7547 20.43 11.64C20.43 11.59 20.38 11.56 20.36 11.51C20.3337 11.4579 20.3036 11.4077 20.27 11.36L15.27 5.36C15.176 5.24712 15.0582 5.15634 14.9252 5.09412C14.7921 5.0319 14.6469 4.99976 14.5 5C14.2663 4.99955 14.0399 5.08092 13.86 5.23C13.7587 5.31395 13.675 5.41705 13.6137 5.5334C13.5523 5.64975 13.5145 5.77705 13.5025 5.90803C13.4904 6.03901 13.5043 6.17108 13.5433 6.29668C13.5824 6.42229 13.6458 6.53895 13.73 6.64L17.36 11H5.5C5.23478 11 4.98043 11.1054 4.79289 11.2929C4.60536 11.4804 4.5 11.7348 4.5 12C4.5 12.2652 4.60536 12.5196 4.79289 12.7071C4.98043 12.8946 5.23478 13 5.5 13Z" fill="#00A759"/>
</svg>
