<svg width="32" height="32" viewBox="0 0 32 32" fill="none" xmlns="http://www.w3.org/2000/svg">
<path d="M0 16C0 7.16344 7.16344 0 16 0V0C24.8366 0 32 7.16344 32 16V16C32 24.8366 24.8366 32 16 32V32C7.16344 32 0 24.8366 0 16V16Z" fill="white"/>
<path d="M24 9.4C24 9.04638 23.8595 8.70724 23.6095 8.45719C23.3594 8.20714 23.0203 8.06667 22.6666 8.06667L12 8C11.6464 8 11.3072 8.14048 11.0572 8.39052C10.8071 8.64057 10.6666 8.97971 10.6666 9.33333C10.6666 9.68696 10.8071 10.0261 11.0572 10.2761C11.3072 10.5262 11.6464 10.6667 12 10.6667H19.4133L8.38665 21.72C8.26168 21.844 8.16248 21.9914 8.09479 22.1539C8.0271 22.3164 7.99225 22.4906 7.99225 22.6667C7.99225 22.8427 8.0271 23.017 8.09479 23.1794C8.16248 23.3419 8.26168 23.4894 8.38665 23.6133C8.5106 23.7383 8.65806 23.8375 8.82054 23.9052C8.98302 23.9729 9.1573 24.0077 9.33331 24.0077C9.50933 24.0077 9.6836 23.9729 9.84608 23.9052C10.0086 23.8375 10.156 23.7383 10.28 23.6133L21.3333 12.56V20C21.3333 20.3536 21.4738 20.6928 21.7238 20.9428C21.9739 21.1929 22.313 21.3333 22.6666 21.3333C23.0203 21.3333 23.3594 21.1929 23.6095 20.9428C23.8595 20.6928 24 20.3536 24 20V9.4Z" fill="#00A759"/>
</svg>
