<svg width="81" height="32" viewBox="0 0 81 32" fill="none" xmlns="http://www.w3.org/2000/svg">
<g clip-path="url(#clip0_372_929)">
<path d="M38.3401 15.633V25.0133H35.3643V1.84824H43.2566C44.1987 1.82856 45.1353 1.99564 46.0125 2.33984C46.8896 2.68404 47.6899 3.19855 48.3672 3.85367C49.0513 4.46901 49.5958 5.22366 49.964 6.06691C50.3322 6.91015 50.5157 7.82244 50.502 8.74248C50.5216 9.66743 50.341 10.5857 49.9725 11.4343C49.604 12.2829 49.0564 13.0418 48.3672 13.659C46.9871 14.975 45.2836 15.6324 43.2566 15.6312H38.3401V15.633ZM38.3401 4.7002V12.7866H43.3305C43.8776 12.8028 44.4221 12.7047 44.9291 12.4984C45.4361 12.2922 45.8945 11.9824 46.2749 11.5889C46.6533 11.221 46.9542 10.7809 47.1596 10.2947C47.365 9.80847 47.4708 9.28601 47.4708 8.75819C47.4708 8.23037 47.365 7.70791 47.1596 7.2217C46.9542 6.7355 46.6533 6.29541 46.2749 5.92748C45.8992 5.52567 45.4425 5.20829 44.9348 4.99639C44.4272 4.78449 43.8804 4.68289 43.3305 4.69835H38.3401V4.7002Z" fill="#5F6368"/>
<path d="M57.3593 8.64648C59.5588 8.64648 61.295 9.23425 62.5679 10.4098C63.8408 11.5853 64.4766 13.1971 64.4753 15.245V25.0134H61.6289V22.8139H61.4995C60.2673 24.6252 58.6285 25.5309 56.583 25.5309C54.837 25.5309 53.3762 25.0134 52.2006 23.9783C51.6365 23.5033 51.1855 22.9083 50.8804 22.2368C50.5754 21.5653 50.424 20.8342 50.4373 20.0968C50.4373 18.4568 51.0571 17.1525 52.2967 16.1839C53.5364 15.2154 55.1912 14.7299 57.2613 14.7275C59.0283 14.7275 60.4836 15.0509 61.6271 15.6978V15.0177C61.6304 14.5149 61.5219 14.0178 61.3093 13.5622C61.0967 13.1067 60.7854 12.7041 60.3979 12.3838C59.611 11.6738 58.5855 11.2864 57.5257 11.2988C55.8634 11.2988 54.548 12 53.5795 13.4022L50.9586 11.7517C52.4003 9.68155 54.5338 8.64648 57.3593 8.64648ZM53.5092 20.1615C53.5072 20.5403 53.5958 20.914 53.7675 21.2516C53.9392 21.5891 54.189 21.8808 54.4962 22.1023C55.1544 22.62 55.9713 22.8942 56.8085 22.8786C58.0642 22.8765 59.2679 22.3766 60.1558 21.4886C61.1416 20.5608 61.6345 19.4721 61.6345 18.2226C60.7066 17.4833 59.4128 17.1136 57.753 17.1136C56.5442 17.1136 55.5362 17.4051 54.7291 17.9879C53.914 18.5794 53.5092 19.2984 53.5092 20.1615Z" fill="#5F6368"/>
<path d="M80.8145 9.16406L70.8779 32.0001H67.806L71.4934 24.0098L64.9596 9.16406H68.1942L72.9166 20.5497H72.9813L77.5744 9.16406H80.8145Z" fill="#5F6368"/>
<path d="M26.3149 13.611C26.316 12.7041 26.2393 11.7988 26.0857 10.905H13.5356V16.0304H20.7237C20.5766 16.849 20.2653 17.6294 19.8085 18.3244C19.3517 19.0194 18.7589 19.6148 18.0658 20.0746V23.4015H22.3558C24.8676 21.0856 26.3149 17.6606 26.3149 13.611Z" fill="#4285F4"/>
<path d="M13.5356 26.6159C17.1269 26.6159 20.1507 25.4367 22.3558 23.4035L18.0658 20.0765C16.8718 20.8861 15.334 21.3482 13.5356 21.3482C10.0644 21.3482 7.11821 19.0082 6.06466 15.855H1.64532V19.2836C2.75296 21.4877 4.45141 23.3406 6.55103 24.6353C8.65066 25.9301 11.0688 26.6158 13.5356 26.6159Z" fill="#34A853"/>
<path d="M6.06467 15.8549C5.5077 14.2026 5.5077 12.4132 6.06467 10.7609V7.33228H1.64533C0.713544 9.18643 0.228271 11.2328 0.228271 13.3079C0.228271 15.383 0.713544 17.4294 1.64533 19.2835L6.06467 15.8549Z" fill="#FBBC04"/>
<path d="M13.5356 5.26761C15.4334 5.23661 17.2672 5.95367 18.6406 7.2638L22.4389 3.4655C20.0304 1.20329 16.8397 -0.0386947 13.5356 -0.000103439C11.0688 8.98587e-06 8.65066 0.685725 6.55103 1.98049C4.45141 3.27525 2.75296 5.12811 1.64532 7.33219L6.06466 10.7608C7.11821 7.60759 10.0644 5.26761 13.5356 5.26761Z" fill="#EA4335"/>
</g>
<defs>
<clipPath id="clip0_372_929">
<rect width="80.5813" height="32" fill="white" transform="translate(0.227661)"/>
</clipPath>
</defs>
</svg>
