<svg width="76" height="57" viewBox="0 0 76 57" fill="none" xmlns="http://www.w3.org/2000/svg">
<path fill-rule="evenodd" clip-rule="evenodd" d="M37.9145 0C53.2015 0 65.5947 12.4722 65.5947 27.8595C65.5947 28.3317 65.5827 28.8003 65.5601 29.2665L63.1079 28.28C63.1103 28.1406 63.1127 28 63.1127 27.8595C63.1127 13.8528 51.831 2.49805 37.9145 2.49805C26.2926 2.49805 16.5103 10.4176 13.5997 21.1872L10.8587 21.9598C13.5484 9.40704 24.6391 0 37.9145 0Z" fill="#F27E00"/>
<path fill-rule="evenodd" clip-rule="evenodd" d="M75.9501 38.7562H72.1776V49.3708H69.9595V38.7562H66.1559V36.6811H75.9991V38.7562H75.9501ZM61.7829 47.476C62.1948 47.476 62.5589 47.4243 62.8753 47.321C63.1893 47.2176 63.4567 47.0638 63.6764 46.8596C63.896 46.6553 64.0608 46.403 64.1706 46.1038C64.2816 45.8034 64.3365 45.4549 64.3365 45.0596C64.3365 44.3122 64.1252 43.7523 63.7026 43.3822C63.2788 43.0085 62.6377 42.8223 61.7829 42.8223H59.0813V47.476H61.7829ZM62.227 40.9455C62.923 40.9455 63.5403 41.0308 64.0751 41.2014C64.6123 41.3732 65.0696 41.6304 65.4456 41.974C65.8217 42.3177 66.1034 42.7442 66.292 43.2549C66.4795 43.7631 66.5726 44.3531 66.5726 45.0236C66.5726 45.7253 66.4699 46.3453 66.2646 46.8824C66.0592 47.4219 65.75 47.8785 65.3382 48.2522C64.9275 48.6259 64.4321 48.9058 63.8554 49.0921C63.28 49.2783 62.6222 49.3708 61.882 49.3708H56.8787V36.6811H59.0813V40.9455H62.227ZM55.316 36.7292V49.372H53.1133V38.7574H48.6627L48.5648 41.8599C48.5374 42.7418 48.4908 43.542 48.424 44.2582C48.3583 44.9755 48.2724 45.6099 48.1685 46.159C47.9369 47.3774 47.6468 48.1921 47.0403 48.6992C46.435 49.205 45.5194 49.3985 44.0378 49.3744L43.9877 49.3732L43.9913 49.3228L44.1393 47.2897L44.1441 47.2284L44.2026 47.2477C44.2706 47.2705 44.3446 47.2885 44.4246 47.2993C44.5046 47.3113 44.5894 47.3162 44.6813 47.3162C45.0036 47.3162 45.2794 47.2116 45.5074 47.0025C45.739 46.7911 45.9229 46.4715 46.0602 46.0449C46.2011 45.6087 46.3169 45.0452 46.404 44.3531C46.49 43.6742 46.5485 42.8716 46.5771 41.9464L46.7419 36.7292L46.7431 36.6823H55.316V36.7292ZM39.3723 44.5261L37.2688 39.1984L35.1808 44.5261H39.3723ZM40.1173 46.457H34.4191L33.2957 49.3408L33.2838 49.3708H30.9737L31.0012 49.3047L36.1872 36.71L36.1991 36.6799H38.3695L38.3827 36.71L43.5854 49.3047L43.6128 49.3708H41.2705L41.2586 49.3408L40.1173 46.457ZM14.2338 44.0647H12.1673V49.372H9.9635V36.6811H12.1661V41.9524H14.2983L17.5945 36.7039L17.6088 36.6811H19.9941L19.9463 36.7544L16.0282 42.8283L20.0955 49.2975L20.1421 49.3708H17.61L17.5957 49.3492L14.2338 44.0647ZM8.74102 47.363V49.372H0.000976562V36.6811H8.51061V38.7382H2.23702V41.9175H7.80147V43.9386H2.23702V47.315H8.74102V47.363ZM19.7159 42.9641C19.7159 41.6508 19.8914 40.549 20.2531 39.6598C20.5194 39.0049 20.8871 38.415 21.3515 37.8935C21.8147 37.3744 22.3244 36.9899 22.8748 36.7364C23.6114 36.3963 24.4554 36.2269 25.4165 36.2269C27.1535 36.2269 28.5419 36.8157 29.5853 37.9932C30.6275 39.1684 31.1492 40.8061 31.1492 42.9016C31.1492 44.9827 30.6311 46.6084 29.5961 47.7836C28.5622 48.9563 27.1785 49.5439 25.4499 49.5439C23.6961 49.5439 22.3017 48.9599 21.2679 47.7932C20.2304 46.6229 19.7159 45.0116 19.7159 42.9641ZM22.1668 42.8764C22.1668 44.3339 22.476 45.4405 23.0921 46.1927C23.7081 46.9461 24.4912 47.3198 25.4403 47.3198C26.387 47.3198 27.1666 46.9485 27.7755 46.1987C28.3819 45.4525 28.6864 44.3339 28.6864 42.8403C28.6864 41.3648 28.3915 40.263 27.8005 39.536C27.2096 38.8091 26.4205 38.4474 25.4403 38.4474C24.4578 38.4474 23.6675 38.8151 23.067 39.5505C22.4677 40.2858 22.1668 41.3924 22.1668 42.8764Z" fill="#00A759"/>
<path fill-rule="evenodd" clip-rule="evenodd" d="M64.1012 51.1124C64.1012 51.2218 64.069 51.3215 64.0033 51.4104C63.9389 51.4993 63.841 51.5438 63.7109 51.5438C63.5807 51.5438 63.4852 51.4993 63.422 51.4104C63.3599 51.3215 63.3276 51.223 63.3276 51.1124C63.3276 51.1076 63.3276 51.1004 63.3276 51.0932C63.3276 51.0848 63.3276 51.0788 63.3276 51.074C63.3372 50.9754 63.373 50.8829 63.4363 50.8C63.4996 50.7171 63.5903 50.675 63.7109 50.675C63.8302 50.675 63.9234 50.7171 63.989 50.8C64.0535 50.8829 64.0905 50.9754 64.1012 51.074C64.1012 51.0788 64.1012 51.086 64.1012 51.0932C64.1012 51.1004 64.1012 51.1076 64.1012 51.1124ZM63.373 52.4113H64.0296V55.5414H63.373V52.4113ZM60.7896 52.4113V53.703L61.864 52.4113H62.5922L61.4306 53.7811L62.708 55.5426H61.95L60.7884 53.9229V55.5426H60.1318V53.9229L58.9773 55.5426H58.2192L59.4895 53.7811L58.3207 52.4113H59.049L60.1318 53.703V52.4113H60.7896ZM57.0159 53.5864C56.9824 53.3569 56.9012 53.1851 56.7735 53.0734C56.6458 52.9616 56.4691 52.9052 56.2434 52.9052C56.0226 52.9052 55.8495 52.9652 55.7241 53.0854C55.5988 53.2055 55.508 53.3726 55.4496 53.5864H57.0159ZM56.8272 52.3969C57.1734 52.5279 57.4074 52.7429 57.5268 53.0421C57.6474 53.3425 57.7071 53.6693 57.7071 54.0238V54.0863H55.3982C55.4173 54.305 55.4734 54.4984 55.5677 54.6654C55.6621 54.8325 55.8196 54.9418 56.0405 54.9935C56.0787 54.9983 56.1145 55.0055 56.1491 55.0127C56.1826 55.0199 56.2136 55.0247 56.2434 55.0247C56.4309 55.0247 56.5992 54.9634 56.7484 54.8409C56.8977 54.7183 57.023 54.5681 57.1233 54.3903L57.6713 54.7267C57.5029 55.0295 57.306 55.259 57.0791 55.4152C56.8535 55.5726 56.5789 55.6507 56.2566 55.6507L56.1121 55.6579C55.6788 55.6267 55.3373 55.4537 55.0866 55.1377C54.8371 54.8228 54.7118 54.4504 54.7118 54.0226C54.7118 53.9866 54.713 53.9481 54.7153 53.9097C54.7177 53.87 54.7213 53.8328 54.7261 53.7955C54.7309 53.7847 54.7332 53.7751 54.7332 53.7643C54.7332 53.7535 54.7332 53.7438 54.7332 53.733C54.738 53.7174 54.7416 53.7018 54.744 53.6862C54.7464 53.6705 54.7476 53.6549 54.7476 53.6393C54.8097 53.2224 54.984 52.8907 55.2669 52.6456C55.551 52.4005 55.871 52.2779 56.2267 52.2779C56.2984 52.2779 56.3724 52.2827 56.4464 52.2936C56.5204 52.3044 56.5968 52.32 56.6732 52.3404C56.6971 52.3512 56.7222 52.3596 56.7496 52.3681C56.7783 52.3765 56.8034 52.3861 56.8272 52.3969ZM51.8418 53.9541C51.8418 54.2257 51.9098 54.4732 52.0435 54.6979C52.1785 54.9226 52.385 55.0343 52.6643 55.0343C52.9294 55.0343 53.1252 54.9274 53.2529 54.7135C53.3806 54.4996 53.4439 54.2653 53.4439 54.0094C53.4439 53.989 53.4439 53.9673 53.4439 53.9469C53.4439 53.9253 53.4415 53.9049 53.4368 53.8844C53.4177 53.6501 53.3448 53.4338 53.2207 53.2344C53.0953 53.0361 52.9174 52.934 52.687 52.9292H52.6357C52.3707 52.9292 52.1725 53.0313 52.0412 53.238C51.9075 53.4435 51.8418 53.6826 51.8418 53.9541ZM51.1995 56.9989V52.4125H51.8633V52.922C51.9552 52.7189 52.0865 52.5627 52.2608 52.4558C52.4339 52.3488 52.619 52.2948 52.816 52.2948C52.8446 52.2948 52.8721 52.296 52.8995 52.2996C52.9258 52.302 52.9509 52.3056 52.9759 52.3116C53.2636 52.3536 53.5275 52.5146 53.7662 52.797C54.005 53.0794 54.1232 53.4831 54.1232 54.0106L54.1375 54.0262C54.1328 54.4492 54.0253 54.8253 53.8164 55.1533C53.6075 55.4825 53.2887 55.6483 52.8601 55.6543L52.8172 55.6615C52.6106 55.6567 52.4315 55.6111 52.2799 55.5246C52.1283 55.4393 51.9898 55.3095 51.8657 55.1377V57.0001H51.1995V56.9989ZM49.7991 53.5864C49.7657 53.3569 49.6845 53.1851 49.558 53.0734C49.4303 52.9616 49.2536 52.9052 49.0279 52.9052C48.8071 52.9052 48.634 52.9652 48.5086 53.0854C48.3833 53.2055 48.2925 53.3726 48.234 53.5864H49.7991ZM49.6117 52.3969C49.9579 52.5279 50.1919 52.7429 50.3113 53.0421C50.4319 53.3425 50.4916 53.6693 50.4916 54.0238V54.0863H48.1827C48.2018 54.305 48.2579 54.4984 48.3522 54.6654C48.4465 54.8325 48.6041 54.9418 48.825 54.9935C48.8632 54.9983 48.899 55.0055 48.9336 55.0127C48.967 55.0199 48.9993 55.0247 49.0279 55.0247C49.2154 55.0247 49.3837 54.9634 49.5329 54.8409C49.6822 54.7183 49.8075 54.5681 49.9078 54.3903L50.4558 54.7267C50.2874 55.0295 50.0904 55.259 49.8636 55.4152C49.638 55.5726 49.3634 55.6507 49.0411 55.6507L48.8966 55.6579C48.4632 55.6267 48.1218 55.4537 47.8723 55.1377C47.6216 54.8228 47.4962 54.4504 47.4962 54.0226C47.4962 53.9866 47.4974 53.9481 47.4998 53.9097C47.5022 53.87 47.5058 53.8328 47.5106 53.7955C47.5153 53.7847 47.5177 53.7751 47.5177 53.7643C47.5177 53.7535 47.5177 53.7438 47.5177 53.733C47.5225 53.7174 47.5261 53.7018 47.5285 53.6862C47.5309 53.6705 47.5321 53.6549 47.5321 53.6393C47.5941 53.2224 47.7684 52.8907 48.0514 52.6456C48.3355 52.4005 48.6555 52.2779 49.0112 52.2779C49.0828 52.2779 49.1569 52.2827 49.2309 52.2936C49.3049 52.3044 49.3813 52.32 49.4589 52.3404C49.4828 52.3512 49.5079 52.3596 49.5341 52.3681C49.5628 52.3765 49.5878 52.3861 49.6117 52.3969ZM43.5089 52.3921H44.4615L45.1838 54.5873L45.9108 52.3921H46.8599V55.5426H46.2057V53.4687L45.4978 55.5426H44.8412L44.1655 53.4687V55.5426H43.5089V52.3921ZM40.1828 51.1124C40.1828 51.2218 40.1506 51.3215 40.0849 51.4104C40.0193 51.4993 39.9226 51.5438 39.7925 51.5438C39.6623 51.5438 39.5668 51.4993 39.5035 51.4104C39.4415 51.3215 39.4092 51.223 39.4092 51.1124C39.4092 51.1076 39.4092 51.1004 39.4092 51.0932C39.4092 51.0848 39.4092 51.0788 39.4092 51.074C39.4188 50.9754 39.4546 50.8829 39.5179 50.8C39.58 50.7171 39.6719 50.675 39.7925 50.675C39.913 50.675 40.005 50.7171 40.0706 50.8C40.1351 50.8829 40.1733 50.9754 40.1828 51.074C40.1828 51.0788 40.1828 51.086 40.1828 51.0932C40.1828 51.1004 40.1828 51.1076 40.1828 51.1124ZM39.4534 52.4113H40.11V55.5414H39.4534V52.4113ZM38.6595 55.5426H37.9886V54.2197H36.5166V55.5426H35.86V52.4113H36.5166V53.6405H37.9886V52.4113H38.6595V55.5426ZM32.8658 53.9541C32.8658 54.2257 32.9339 54.4732 33.0688 54.6979C33.2025 54.9226 33.4102 55.0343 33.6896 55.0343C33.9546 55.0343 34.1504 54.9274 34.2781 54.7135C34.4059 54.4996 34.4692 54.2653 34.4692 54.0094C34.4692 53.989 34.4692 53.9673 34.4692 53.9469C34.4692 53.9253 34.4668 53.9049 34.462 53.8844C34.4429 53.6501 34.3701 53.4338 34.2459 53.2344C34.1206 53.0361 33.9427 52.934 33.7123 52.9292H33.6609C33.3971 52.9292 33.1977 53.0313 33.0664 53.238C32.9315 53.4435 32.8658 53.6826 32.8658 53.9541ZM32.2236 56.9989V52.4125H32.8873V52.922C32.9793 52.7189 33.1106 52.5627 33.2849 52.4558C33.458 52.3488 33.643 52.2948 33.84 52.2948C33.8687 52.2948 33.8961 52.296 33.9224 52.2996C33.9487 52.302 33.9737 52.3056 33.9988 52.3116C34.2877 52.3536 34.5503 52.5146 34.7891 52.797C35.0279 53.0794 35.1461 53.4831 35.1461 54.0106L35.1604 54.0262C35.1556 54.4492 35.0482 54.8253 34.8392 55.1533C34.6303 55.4825 34.3116 55.6483 33.883 55.6543L33.84 55.6615C33.6335 55.6567 33.4544 55.6111 33.3028 55.5246C33.1512 55.4393 33.0127 55.3095 32.8885 55.1377V57.0001H32.2236V56.9989ZM30.8232 53.5864C30.7898 53.3569 30.7086 53.1851 30.582 53.0734C30.4543 52.9616 30.2776 52.9052 30.052 52.9052C29.8311 52.9052 29.658 52.9652 29.5327 53.0854C29.4073 53.2055 29.3166 53.3726 29.2581 53.5864H30.8232ZM30.6358 52.3969C30.982 52.5279 31.2148 52.7429 31.3354 53.0421C31.4559 53.3425 31.5156 53.6693 31.5156 54.0238V54.0863H29.2068C29.2259 54.305 29.2832 54.4984 29.3763 54.6654C29.4706 54.8325 29.6282 54.9418 29.849 54.9935C29.8872 54.9983 29.923 55.0055 29.9577 55.0127C29.9923 55.0199 30.0233 55.0247 30.052 55.0247C30.2394 55.0247 30.4077 54.9634 30.557 54.8409C30.7062 54.7183 30.8316 54.5681 30.9318 54.3903L31.4798 54.7267C31.3115 55.0295 31.1145 55.259 30.8889 55.4152C30.6632 55.5726 30.3886 55.6507 30.0663 55.6507L29.9219 55.6579C29.4897 55.6267 29.1471 55.4537 28.8976 55.1377C28.6468 54.8228 28.5215 54.4504 28.5215 54.0226C28.5215 53.9866 28.5227 53.9481 28.5251 53.9097C28.5275 53.87 28.531 53.8328 28.5358 53.7955C28.5406 53.7847 28.543 53.7751 28.543 53.7643C28.543 53.7535 28.543 53.7438 28.543 53.733C28.5478 53.7174 28.5513 53.7018 28.5537 53.6862C28.5561 53.6705 28.5573 53.6549 28.5573 53.6393C28.6206 53.2224 28.7937 52.8907 29.0766 52.6456C29.3608 52.4005 29.6807 52.2779 30.0365 52.2779C30.1093 52.2779 30.1821 52.2827 30.2573 52.2936C30.3313 52.3044 30.4077 52.32 30.4841 52.3404C30.508 52.3512 30.5331 52.3596 30.5594 52.3681C30.5868 52.3765 30.6119 52.3861 30.6358 52.3969ZM27.8649 55.5426H27.194V54.2197H25.722V55.5426H25.0654V52.4113H25.722V53.6405H27.194V52.4113H27.8649V55.5426ZM23.6793 53.5864C23.6459 53.3569 23.5647 53.1851 23.4382 53.0734C23.3104 52.9616 23.1337 52.9052 22.9081 52.9052C22.686 52.9052 22.5141 52.9652 22.3876 53.0854C22.2622 53.2055 22.1715 53.3726 22.113 53.5864H23.6793ZM23.4919 52.3969C23.8381 52.5279 24.0721 52.7429 24.1915 53.0421C24.312 53.3425 24.3717 53.6693 24.3717 54.0238V54.0863H22.0629C22.082 54.305 22.1393 54.4984 22.2324 54.6654C22.3267 54.8325 22.4843 54.9418 22.7051 54.9935C22.7433 54.9983 22.7792 55.0055 22.8138 55.0127C22.8472 55.0199 22.8794 55.0247 22.9081 55.0247C23.0955 55.0247 23.2639 54.9634 23.4131 54.8409C23.5623 54.7183 23.6877 54.5681 23.788 54.3903L24.3359 54.7267C24.1676 55.0295 23.9706 55.259 23.745 55.4152C23.5193 55.5726 23.2448 55.6507 22.9224 55.6507L22.778 55.6579C22.3446 55.6267 22.0032 55.4537 21.7537 55.1377C21.503 54.8228 21.3788 54.4504 21.3788 54.0226C21.3788 53.9866 21.38 53.9481 21.3824 53.9097C21.3848 53.87 21.3884 53.8328 21.3931 53.7955C21.3979 53.7847 21.4003 53.7751 21.4003 53.7643C21.4003 53.7535 21.4003 53.7438 21.4003 53.733C21.4051 53.7174 21.4086 53.7018 21.411 53.6862C21.4134 53.6705 21.4146 53.6549 21.4146 53.6393C21.4767 53.2224 21.6498 52.8907 21.9339 52.6456C22.2181 52.4005 22.5368 52.2779 22.8938 52.2779C22.9654 52.2779 23.0394 52.2827 23.1134 52.2936C23.1875 52.3044 23.2639 52.32 23.3415 52.3404C23.3653 52.3512 23.3904 52.3596 23.4167 52.3681C23.4429 52.3765 23.468 52.3861 23.4919 52.3969ZM18.9314 52.4113V53.703L20.0071 52.4113H20.7365L19.5749 53.7811L20.8523 55.5426H20.0942L18.9326 53.9229V55.5426H18.276V53.9229L17.1216 55.5426H16.3635L17.6338 53.7811L16.465 52.4113H17.1932L18.276 53.703V52.4113H18.9314ZM15.7642 55.5426H15.0933V54.2197H13.6213V55.5426H12.9647V52.4113H13.6213V53.6405H15.0933V52.4113H15.7642V55.5426ZM12.2424 51.1124C12.2424 51.2218 12.2102 51.3215 12.1457 51.4104C12.08 51.4993 11.9833 51.5438 11.8532 51.5438C11.7231 51.5438 11.6264 51.4993 11.5643 51.4104C11.5022 51.3215 11.47 51.223 11.47 51.1124C11.47 51.1076 11.47 51.1004 11.47 51.0932C11.47 51.0848 11.47 51.0788 11.47 51.074C11.4796 50.9754 11.5154 50.8829 11.5786 50.8C11.6407 50.7171 11.7326 50.675 11.8532 50.675C11.9738 50.675 12.0657 50.7171 12.1314 50.8C12.1959 50.8829 12.2341 50.9754 12.2424 51.074C12.2424 51.0788 12.2424 51.086 12.2424 51.0932C12.2424 51.1004 12.2424 51.1076 12.2424 51.1124ZM11.513 52.4113H12.1696V55.5414H11.513V52.4113Z" fill="#1B1B1B"/>
<path fill-rule="evenodd" clip-rule="evenodd" d="M68.1687 30.5535C46.5926 18.938 26.0527 18.5643 6.33899 27.1387C8.37447 27.7202 10.4111 28.3018 12.4466 28.8846C26.6926 21.4565 44.8185 21.0035 67.6625 30.3048C49.0089 23.6914 30.8364 22.3589 14.3317 30.0224C16.1917 30.5788 18.0517 31.1363 19.9117 31.6926C33.476 24.4364 50.1609 25.692 68.1687 30.5535Z" fill="#00A759"/>
</svg>
