<svg width="11" height="20" viewBox="0 0 11 20" fill="none" xmlns="http://www.w3.org/2000/svg">
<path d="M8.66676 0.666668C8.9783 0.66606 9.28021 0.774559 9.52009 0.973333C9.6551 1.08527 9.76671 1.22273 9.84851 1.37786C9.93031 1.53299 9.98071 1.70274 9.99681 1.87737C10.0129 2.05201 9.9944 2.2281 9.94234 2.39557C9.89028 2.56305 9.8057 2.7186 9.69343 2.85333L3.72009 10L9.48009 17.16C9.59085 17.2964 9.67356 17.4533 9.72347 17.6218C9.77338 17.7902 9.7895 17.9669 9.77092 18.1416C9.75233 18.3163 9.6994 18.4856 9.61517 18.6398C9.53094 18.794 9.41706 18.93 9.28009 19.04C9.14214 19.1614 8.98059 19.2529 8.80557 19.3089C8.63055 19.3649 8.44585 19.3841 8.26306 19.3653C8.08027 19.3466 7.90334 19.2902 7.74336 19.1998C7.58338 19.1094 7.44382 18.9869 7.33343 18.84L0.893428 10.84C0.697319 10.6014 0.590111 10.3022 0.590111 9.99333C0.590111 9.6845 0.697319 9.38525 0.893428 9.14667L7.56009 1.14667C7.69385 0.985312 7.86376 0.85776 8.05604 0.774361C8.24832 0.690964 8.45755 0.654066 8.66676 0.666668Z" fill="#AFB1BD"/>
</svg>
