<svg width="11" height="20" viewBox="0 0 11 20" fill="none" xmlns="http://www.w3.org/2000/svg">
<path d="M2.33324 19.3333C2.0217 19.3339 1.71979 19.2254 1.4799 19.0267C1.34489 18.9147 1.23329 18.7773 1.15149 18.6221C1.06969 18.467 1.01929 18.2973 1.00319 18.1226C0.987089 17.948 1.0056 17.7719 1.05766 17.6044C1.10972 17.437 1.1943 17.2814 1.30657 17.1467L7.2799 10L1.51991 2.84C1.40915 2.70362 1.32644 2.54669 1.27653 2.37824C1.22662 2.20979 1.2105 2.03313 1.22908 1.85843C1.24767 1.68372 1.3006 1.51441 1.38483 1.36023C1.46906 1.20605 1.58294 1.07003 1.71991 0.960002C1.85786 0.83862 2.01941 0.747063 2.19443 0.691078C2.36945 0.635093 2.55415 0.615888 2.73694 0.634667C2.91973 0.653447 3.09666 0.709807 3.25664 0.800209C3.41662 0.890612 3.55618 1.01311 3.66657 1.16L10.1066 9.16C10.3027 9.39858 10.4099 9.69784 10.4099 10.0067C10.4099 10.3155 10.3027 10.6148 10.1066 10.8533L3.43991 18.8533C3.30615 19.0147 3.13624 19.1422 2.94396 19.2256C2.75168 19.309 2.54245 19.3459 2.33324 19.3333Z" fill="#AFB1BD"/>
</svg>
