<svg width="20" height="11" viewBox="0 0 20 11" fill="none" xmlns="http://www.w3.org/2000/svg">
<path d="M0.666664 2.33336C0.666056 2.02182 0.774555 1.71991 0.97333 1.48003C1.08526 1.34501 1.22273 1.23341 1.37786 1.15161C1.53299 1.06981 1.70273 1.01941 1.87737 1.00331C2.052 0.98721 2.2281 1.00572 2.39557 1.05778C2.56304 1.10984 2.7186 1.19442 2.85333 1.30669L10 7.28003L17.16 1.52003C17.2964 1.40927 17.4533 1.32656 17.6218 1.27666C17.7902 1.22675 17.9669 1.21062 18.1416 1.22921C18.3163 1.24779 18.4856 1.30072 18.6398 1.38495C18.794 1.46919 18.93 1.58306 19.04 1.72003C19.1614 1.85798 19.2529 2.01954 19.3089 2.19455C19.3649 2.36957 19.3841 2.55427 19.3653 2.73706C19.3466 2.91985 19.2902 3.09679 19.1998 3.25676C19.1094 3.41674 18.9869 3.5563 18.84 3.66669L10.84 10.1067C10.6014 10.3028 10.3022 10.41 9.99333 10.41C9.6845 10.41 9.38524 10.3028 9.14666 10.1067L1.14666 3.44003C0.985308 3.30627 0.857756 3.13636 0.774357 2.94408C0.69096 2.7518 0.654062 2.54257 0.666664 2.33336Z" fill="#1B1B1B"/>
</svg>
