<svg width="32" height="32" viewBox="0 0 32 32" fill="none" xmlns="http://www.w3.org/2000/svg">
<path opacity="0.04" d="M32 0H0V32H32V0Z" fill="#F45B42" fill-opacity="0.04"/>
<path d="M27.9998 7.99997H21.3332V5.7733C21.3019 4.91973 20.9334 4.11338 20.3086 3.53102C19.6838 2.94867 18.8535 2.63782 17.9998 2.66663H13.9998C13.1462 2.63782 12.3159 2.94867 11.6911 3.53102C11.0662 4.11338 10.6978 4.91973 10.6665 5.7733V7.99997H3.99984C3.64622 7.99997 3.30708 8.14044 3.05703 8.39049C2.80698 8.64054 2.6665 8.97968 2.6665 9.3333C2.6665 9.68692 2.80698 10.0261 3.05703 10.2761C3.30708 10.5262 3.64622 10.6666 3.99984 10.6666H5.33317V25.3333C5.33317 26.3942 5.7546 27.4116 6.50474 28.1617C7.25489 28.9119 8.2723 29.3333 9.33317 29.3333H22.6665C23.7274 29.3333 24.7448 28.9119 25.4949 28.1617C26.2451 27.4116 26.6665 26.3942 26.6665 25.3333V10.6666H27.9998C28.3535 10.6666 28.6926 10.5262 28.9426 10.2761C29.1927 10.0261 29.3332 9.68692 29.3332 9.3333C29.3332 8.97968 29.1927 8.64054 28.9426 8.39049C28.6926 8.14044 28.3535 7.99997 27.9998 7.99997ZM13.3332 5.7733C13.3332 5.55997 13.6132 5.3333 13.9998 5.3333H17.9998C18.3865 5.3333 18.6665 5.55997 18.6665 5.7733V7.99997H13.3332V5.7733ZM23.9998 25.3333C23.9998 25.6869 23.8594 26.0261 23.6093 26.2761C23.3593 26.5262 23.0201 26.6666 22.6665 26.6666H9.33317C8.97955 26.6666 8.64041 26.5262 8.39036 26.2761C8.14031 26.0261 7.99984 25.6869 7.99984 25.3333V10.6666H23.9998V25.3333Z" fill="#F45B42"/>
<path d="M11.9998 22.6666C12.3535 22.6666 12.6926 22.5262 12.9426 22.2761C13.1927 22.0261 13.3332 21.6869 13.3332 21.3333V16C13.3332 15.6463 13.1927 15.3072 12.9426 15.0572C12.6926 14.8071 12.3535 14.6666 11.9998 14.6666C11.6462 14.6666 11.3071 14.8071 11.057 15.0572C10.807 15.3072 10.6665 15.6463 10.6665 16V21.3333C10.6665 21.6869 10.807 22.0261 11.057 22.2761C11.3071 22.5262 11.6462 22.6666 11.9998 22.6666Z" fill="#F45B42"/>
<path d="M19.9998 22.6666C20.3535 22.6666 20.6926 22.5262 20.9426 22.2761C21.1927 22.0261 21.3332 21.6869 21.3332 21.3333V16C21.3332 15.6463 21.1927 15.3072 20.9426 15.0572C20.6926 14.8071 20.3535 14.6666 19.9998 14.6666C19.6462 14.6666 19.3071 14.8071 19.057 15.0572C18.807 15.3072 18.6665 15.6463 18.6665 16V21.3333C18.6665 21.6869 18.807 22.0261 19.057 22.2761C19.3071 22.5262 19.6462 22.6666 19.9998 22.6666Z" fill="#F45B42"/>
</svg>
