<svg width="78" height="32" viewBox="0 0 78 32" fill="none" xmlns="http://www.w3.org/2000/svg">
<path d="M14.2404 4.12559C13.3269 5.20647 11.8655 6.05899 10.404 5.9372C10.2213 4.47574 10.9368 2.92293 11.7741 1.96384C12.6875 0.852521 14.286 0.0608944 15.58 0C15.7323 1.52236 15.1385 3.01427 14.2404 4.12559ZM15.5648 6.22645C13.4487 6.10466 11.6371 7.42912 10.6324 7.42912C9.61238 7.42912 8.0748 6.28735 6.4002 6.31779C4.22323 6.34824 2.19849 7.58135 1.08717 9.5452C-1.19637 13.4729 0.493449 19.2883 2.70087 22.4853C3.78175 24.0685 5.07575 25.804 6.78079 25.7431C8.3945 25.6822 9.03389 24.6927 10.9825 24.6927C12.9464 24.6927 13.5096 25.7431 15.2147 25.7127C16.9806 25.6822 18.0919 24.1294 19.1728 22.5461C20.4059 20.7498 20.9083 18.999 20.9387 18.9077C20.9083 18.8773 17.5287 17.5833 17.4982 13.686C17.4678 10.4282 20.1623 8.87536 20.2841 8.78402C18.7618 6.53092 16.3869 6.28735 15.5648 6.22645ZM27.7894 1.81161V25.5452H31.4735V17.431H36.5734C41.2318 17.431 44.5049 14.2341 44.5049 9.60609C44.5049 4.97812 41.2927 1.81161 36.6952 1.81161H27.7894ZM31.4735 4.91722H35.7208C38.9178 4.91722 40.7446 6.62226 40.7446 9.62131C40.7446 12.6204 38.9178 14.3406 35.7056 14.3406H31.4735V4.91722ZM51.2337 25.7279C53.5477 25.7279 55.6942 24.5557 56.6685 22.6984H56.7446V25.5452H60.1547V13.7317C60.1547 10.3064 57.4145 8.09895 53.1975 8.09895C49.2851 8.09895 46.3926 10.3368 46.286 13.412H49.6048C49.8788 11.9505 51.2337 10.9914 53.091 10.9914C55.3441 10.9914 56.6076 12.0419 56.6076 13.9753V15.2845L52.0101 15.5585C47.7323 15.8173 45.4183 17.568 45.4183 20.6127C45.4183 23.6879 47.8084 25.7279 51.2337 25.7279ZM52.2232 22.9115C50.2594 22.9115 49.011 21.9677 49.011 20.5214C49.011 19.0295 50.2137 18.1618 52.5125 18.0247L56.6076 17.7659V19.1056C56.6076 21.3283 54.7199 22.9115 52.2232 22.9115ZM64.7066 32C68.2993 32 69.9892 30.6299 71.4659 26.4738L77.9359 8.32731H74.1909L69.8521 22.3482H69.776L65.4373 8.32731H61.5857L67.8274 25.6061L67.4925 26.6565C66.9292 28.4377 66.0158 29.1227 64.3869 29.1227C64.0976 29.1227 63.5344 29.0923 63.306 29.0618V31.9087C63.5191 31.9696 64.4325 32 64.7066 32Z" fill="black"/>
</svg>
