<svg width="32" height="32" viewBox="0 0 32 32" fill="none" xmlns="http://www.w3.org/2000/svg">
<path d="M28.1066 9.33338C27.8762 8.93421 27.5463 8.60156 27.1491 8.36788C26.7518 8.1342 26.3008 8.00747 25.84 8.00005H8.77329L7.99996 4.98672C7.92183 4.69583 7.74751 4.43997 7.5054 4.26081C7.26328 4.08165 6.96764 3.98974 6.66663 4.00005H3.99996C3.64634 4.00005 3.3072 4.14053 3.05715 4.39057C2.8071 4.64062 2.66663 4.97976 2.66663 5.33338C2.66663 5.687 2.8071 6.02614 3.05715 6.27619C3.3072 6.52624 3.64634 6.66672 3.99996 6.66672H5.65329L9.33329 20.3467C9.41143 20.6376 9.58574 20.8935 9.82786 21.0726C10.07 21.2518 10.3656 21.3437 10.6666 21.3334H22.6666C22.9128 21.3326 23.1541 21.2637 23.3635 21.1343C23.573 21.0048 23.7425 20.8199 23.8533 20.6L28.2266 11.8534C28.4162 11.4561 28.5044 11.018 28.4835 10.5783C28.4625 10.1386 28.3331 9.71089 28.1066 9.33338ZM21.84 18.6667H11.68L9.50663 10.6667H25.84L21.84 18.6667Z" fill="white"/>
<path d="M10 28C11.1046 28 12 27.1046 12 26C12 24.8954 11.1046 24 10 24C8.89543 24 8 24.8954 8 26C8 27.1046 8.89543 28 10 28Z" fill="white"/>
<path d="M23.3334 28C24.4379 28 25.3334 27.1046 25.3334 26C25.3334 24.8954 24.4379 24 23.3334 24C22.2288 24 21.3334 24.8954 21.3334 26C21.3334 27.1046 22.2288 28 23.3334 28Z" fill="white"/>
</svg>
