<svg width="181" height="32" viewBox="0 0 181 32" fill="none" xmlns="http://www.w3.org/2000/svg">
<path d="M78.4561 21.3898V14.7115C78.4561 12.196 76.8704 10.5042 74.3156 10.4819C73.5878 10.434 72.8606 10.5843 72.2098 10.9171C71.559 11.25 71.0085 11.7531 70.6156 12.3742C70.2575 11.7716 69.7452 11.2778 69.1328 10.9448C68.5204 10.6118 67.8305 10.4519 67.1357 10.4819C66.5301 10.4512 65.9271 10.5808 65.3863 10.8581C64.8455 11.1353 64.3857 11.5505 64.0525 12.0625V10.7491H61.7618V21.3898H64.0744V15.4906C64.0744 13.643 65.0876 12.6637 66.6512 12.6637C68.1708 12.6637 68.9418 13.6653 68.9418 15.4684V21.3898H71.2543V15.4906C71.2543 13.643 72.3115 12.6637 73.8311 12.6637C75.3947 12.6637 76.1436 13.6653 76.1436 15.4684V21.3898H78.4561ZM112.681 10.7491H108.937V7.52136H106.625V10.7491H104.489V12.8639H106.625V17.7167C106.625 20.1877 107.572 21.657 110.281 21.657C111.293 21.66 112.285 21.3745 113.144 20.8333L112.483 18.852C111.869 19.2224 111.172 19.4292 110.457 19.4531C109.312 19.4531 108.937 18.7406 108.937 17.6723V12.8639H112.681V10.7491ZM132.217 10.4819C131.658 10.4653 131.106 10.6013 130.617 10.8755C130.129 11.1498 129.723 11.5521 129.442 12.0402V10.7491H127.173V21.3898H129.464V15.4238C129.464 13.6653 130.213 12.6858 131.71 12.6858C132.2 12.679 132.687 12.7697 133.142 12.953L133.847 10.7714C133.324 10.5821 132.772 10.4842 132.217 10.4819ZM102.683 11.5951C101.386 10.8158 99.8954 10.4294 98.3879 10.4819C95.7229 10.4819 94.0051 11.773 94.0051 13.8878C94.0051 15.6242 95.2825 16.6928 97.6389 17.0267L98.7182 17.1825C99.9735 17.3605 100.568 17.6944 100.568 18.2955C100.568 19.1192 99.7312 19.5866 98.1676 19.5866C96.9098 19.6232 95.6764 19.2311 94.6657 18.4736L93.5866 20.2766C94.9207 21.2185 96.5189 21.7024 98.1456 21.657C101.185 21.657 102.947 20.2098 102.947 18.1842C102.947 16.3142 101.559 15.3347 99.2688 15.0008L98.1897 14.845C97.1986 14.7115 96.4058 14.5113 96.4058 13.799C96.4058 13.0197 97.1544 12.5523 98.4099 12.5523C99.5627 12.5698 100.692 12.8839 101.691 13.465L102.683 11.5951ZM164.042 10.4819C163.483 10.4653 162.931 10.6013 162.442 10.8755C161.954 11.1498 161.548 11.5521 161.267 12.0402V10.7491H158.998V21.3898H161.289V15.4238C161.289 13.6653 162.037 12.6858 163.535 12.6858C164.025 12.6789 164.512 12.7697 164.967 12.953L165.672 10.7714C165.148 10.5821 164.597 10.4842 164.042 10.4819ZM134.529 16.0694C134.529 19.2973 136.754 21.657 140.146 21.657C141.521 21.7268 142.872 21.2741 143.934 20.388L142.833 18.5181C142.041 19.1282 141.075 19.4639 140.079 19.4752C138.252 19.4531 136.908 18.1174 136.908 16.0694C136.908 14.0215 138.252 12.6858 140.079 12.6637C141.075 12.675 142.041 13.0107 142.833 13.6208L143.934 11.7509C142.872 10.8648 141.521 10.4121 140.146 10.4819C136.754 10.4819 134.529 12.8416 134.529 16.0694ZM155.981 16.0694V10.7491H153.69V12.0402C153.299 11.531 152.793 11.1238 152.215 10.8527C151.636 10.5816 151.002 10.4544 150.365 10.4819C147.413 10.4819 145.101 12.8195 145.101 16.0694C145.101 19.3194 147.413 21.657 150.365 21.657C151.002 21.6845 151.636 21.5574 152.215 21.2862C152.793 21.0151 153.299 20.6079 153.69 20.0987V21.3898H155.981V16.0694ZM147.457 16.0694C147.457 14.1994 148.669 12.6637 150.651 12.6637C152.545 12.6637 153.822 14.1327 153.822 16.0694C153.822 18.006 152.545 19.4752 150.651 19.4752C148.669 19.4752 147.457 17.9393 147.457 16.0694ZM119.817 10.4819C116.734 10.4819 114.576 12.7525 114.576 16.0694C114.576 19.4531 116.822 21.657 119.972 21.657C121.543 21.7127 123.08 21.1817 124.288 20.1654L123.165 18.4513C122.295 19.1558 121.218 19.5474 120.104 19.5643C118.628 19.5643 117.285 18.8743 116.954 16.9597H124.773C124.795 16.6705 124.817 16.3812 124.817 16.0694C124.795 12.7525 122.769 10.4819 119.817 10.4819ZM119.773 12.5523C121.249 12.5523 122.196 13.4871 122.438 15.1345H116.976C117.218 13.5985 118.143 12.5523 119.773 12.5523ZM177.234 16.0694V6.4751H174.944V12.0402C174.553 11.531 174.047 11.1238 173.468 10.8527C172.89 10.5816 172.255 10.4545 171.618 10.4819C168.667 10.4819 166.354 12.8195 166.354 16.0694C166.354 19.3194 168.667 21.657 171.618 21.657C172.255 21.6845 172.89 21.5573 173.468 21.2862C174.047 21.0151 174.553 20.6079 174.944 20.0987V21.3898H177.234V16.0694ZM179.911 20.4079C180.002 20.4073 180.092 20.4253 180.176 20.4608C180.256 20.4948 180.329 20.544 180.392 20.6056C180.454 20.6672 180.503 20.7403 180.537 20.8209C180.573 20.9036 180.591 20.9927 180.591 21.0828C180.591 21.1728 180.573 21.2619 180.537 21.3447C180.503 21.4248 180.453 21.4976 180.392 21.559C180.329 21.6207 180.256 21.6701 180.176 21.7046C180.092 21.7408 180.002 21.7591 179.911 21.7585C179.777 21.7598 179.646 21.7213 179.534 21.6477C179.421 21.5741 179.333 21.4687 179.28 21.3447C179.245 21.2619 179.227 21.1728 179.227 21.0828C179.227 20.9927 179.245 20.9036 179.28 20.8209C179.349 20.6574 179.479 20.528 179.642 20.4608C179.727 20.4252 179.819 20.4072 179.911 20.4079ZM179.911 21.6095C179.98 21.61 180.049 21.5959 180.113 21.5681C180.174 21.5413 180.229 21.5031 180.276 21.4555C180.373 21.3564 180.428 21.2225 180.428 21.0831C180.428 20.9436 180.373 20.8098 180.276 20.7106C180.229 20.6632 180.174 20.6253 180.113 20.599C180.049 20.5717 179.98 20.5578 179.911 20.5585C179.84 20.5579 179.771 20.5717 179.705 20.599C179.627 20.6328 179.558 20.6854 179.504 20.7523C179.451 20.8191 179.414 20.8983 179.398 20.9828C179.381 21.0673 179.386 21.1545 179.41 21.2369C179.435 21.3193 179.479 21.3944 179.539 21.4555C179.587 21.5035 179.643 21.5417 179.705 21.5681C179.77 21.5959 179.84 21.61 179.911 21.6095ZM179.95 20.767C180.016 20.7627 180.081 20.7817 180.135 20.8209C180.156 20.8385 180.173 20.8609 180.184 20.8864C180.195 20.9118 180.2 20.9395 180.199 20.9673C180.2 20.9911 180.196 21.0148 180.187 21.0369C180.178 21.059 180.165 21.0789 180.148 21.0955C180.107 21.132 180.055 21.1538 180.001 21.1576L180.204 21.3942H180.045L179.857 21.1592H179.796V21.3942H179.664V20.767H179.95ZM179.796 20.8846V21.0517H179.949C179.978 21.0532 180.007 21.046 180.032 21.031C180.043 21.024 180.051 21.0145 180.056 21.0033C180.062 20.9921 180.064 20.9797 180.063 20.9673C180.064 20.9551 180.061 20.9429 180.056 20.932C180.051 20.9211 180.042 20.9119 180.032 20.9052C180.007 20.8902 179.978 20.8831 179.949 20.8846H179.796ZM168.711 16.0694C168.711 14.1994 169.922 12.6637 171.904 12.6637C173.798 12.6637 175.076 14.1327 175.076 16.0694C175.076 18.006 173.798 19.4752 171.904 19.4752C169.922 19.4752 168.711 17.9393 168.711 16.0694ZM91.3622 16.0694V10.7491H89.0717V12.0402C88.6807 11.531 88.1747 11.1237 87.5961 10.8526C87.0176 10.5815 86.3831 10.4544 85.746 10.4819C82.7948 10.4819 80.4823 12.8195 80.4823 16.0694C80.4823 19.3194 82.7948 21.657 85.746 21.657C86.3831 21.6845 87.0176 21.5574 87.5961 21.2863C88.1747 21.0151 88.6807 20.6079 89.0717 20.0987V21.3898H91.3622V16.0694ZM82.839 16.0694C82.839 14.1994 84.0503 12.6637 86.0324 12.6637C87.9264 12.6637 89.2038 14.1327 89.2038 16.0694C89.2038 18.006 87.9264 19.4752 86.0324 19.4752C84.0503 19.4752 82.839 17.9393 82.839 16.0694Z" fill="#231F20"/>
<path d="M32.5378 3.4209H18.6866V28.5793H32.5378V3.4209Z" fill="#FF5F00"/>
<path d="M19.5662 16C19.564 13.5771 20.1072 11.1854 21.1547 9.00601C22.2022 6.82664 23.7265 4.91671 25.6123 3.4208C23.277 1.56553 20.4725 0.411768 17.5192 0.0913804C14.5659 -0.229007 11.583 0.296899 8.91139 1.60901C6.23983 2.92112 3.98739 4.9665 2.41154 7.51134C0.835687 10.0562 0 12.9978 0 16C0 19.0022 0.835687 21.9438 2.41154 24.4886C3.98739 27.0335 6.23983 29.0789 8.91139 30.391C11.583 31.7031 14.5659 32.229 17.5192 31.9086C20.4725 31.5882 23.277 30.4345 25.6123 28.5792C23.7265 27.0833 22.2022 25.1733 21.1547 22.994C20.1072 20.8146 19.564 18.4229 19.5662 16Z" fill="#EB001B"/>
<path d="M51.2237 16C51.2238 19.0021 50.3883 21.9438 48.8125 24.4886C47.2367 27.0334 44.9844 29.0788 42.3128 30.391C39.6413 31.7031 36.6585 32.229 33.7052 31.9086C30.7519 31.5882 27.9474 30.4345 25.6123 28.5792C27.4964 27.0818 29.0195 25.1715 30.0668 22.9925C31.1141 20.8135 31.6583 18.4225 31.6583 16C31.6583 13.5775 31.1141 11.1865 30.0668 9.00749C29.0195 6.82847 27.4964 4.91823 25.6123 3.42081C27.9474 1.56554 30.7519 0.411761 33.7052 0.0913765C36.6585 -0.229008 39.6413 0.296922 42.3128 1.60905C44.9844 2.92117 47.2367 4.96656 48.8125 7.5114C50.3883 10.0562 51.2238 12.9978 51.2237 16Z" fill="#F79E1B"/>
<path d="M49.7135 25.9147V25.3997H49.9189V25.2947H49.3956V25.3997H49.6012V25.9147H49.7135ZM50.7294 25.9147V25.2937H50.569L50.3845 25.7209L50.2 25.2937H50.0395V25.9147H50.1527V25.4463L50.3258 25.8502H50.4432L50.6162 25.4453V25.9147H50.7294Z" fill="#F79E1B"/>
</svg>
