<svg width="100" height="32" viewBox="0 0 100 32" fill="none" xmlns="http://www.w3.org/2000/svg">
<path d="M43.3507 31.4666H35.3021L40.3324 0.552394H48.3818L43.3507 31.4666ZM28.5312 0.552394L20.858 21.8154L19.9501 17.2367L19.9509 17.2383L17.2427 3.33587C17.2427 3.33587 16.9152 0.552394 13.4247 0.552394H0.739486L0.590637 1.07584C0.590637 1.07584 4.4698 1.88293 9.00968 4.60935L16.0023 31.4674H24.3882L37.1933 0.552394H28.5312ZM91.8373 31.4666H99.2277L92.7842 0.551567H86.3142C83.3265 0.551567 82.5988 2.85541 82.5988 2.85541L70.595 31.4666H78.9851L80.6629 26.8746H90.8946L91.8373 31.4666ZM82.9809 20.5312L87.2098 8.96235L89.5889 20.5312H82.9809ZM71.2243 7.98656L72.3729 1.34791C72.3729 1.34791 68.8287 0 65.1339 0C61.1398 0 51.6548 1.74566 51.6548 10.2342C51.6548 18.2207 62.7871 18.32 62.7871 22.515C62.7871 26.7101 52.8018 25.9584 49.5064 23.313L48.3099 30.2543C48.3099 30.2543 51.9037 32 57.3946 32C62.8871 32 71.173 29.1562 71.173 21.416C71.173 13.3782 59.9407 12.6298 59.9407 9.13518C59.9416 5.63971 67.7801 6.08874 71.2243 7.98656Z" fill="#2566AF"/>
<path d="M19.9509 17.2374L17.2427 3.33498C17.2427 3.33498 16.9152 0.551514 13.4247 0.551514H0.739486L0.590637 1.07496C0.590637 1.07496 6.68765 2.33852 12.5357 7.07274C18.1275 11.5977 19.9509 17.2374 19.9509 17.2374Z" fill="#E6A540"/>
</svg>
